<?xml version="1.0" encoding="UTF-8"?>
<svg xmlns="http://www.w3.org/2000/svg" xmlns:xlink="http://www.w3.org/1999/xlink" width="35px" height="54px" viewBox="0 0 35 53" version="1.1">
<g id="surface1">
<path style=" stroke:none;fill-rule:nonzero;fill:rgb(11.372549%,11.372549%,12.156863%);fill-opacity:1;" d="M 17.5 16.027344 C 8.113281 16.027344 0.5 23.269531 0.5 32.214844 C 0.5 41.152344 8.113281 48.398438 17.5 48.398438 C 26.886719 48.398438 34.5 41.152344 34.5 32.214844 C 34.5 23.269531 26.886719 16.027344 17.5 16.027344 Z M 21.996094 23.785156 C 22.890625 23.710938 23.699219 24.320312 23.820312 25.167969 L 23 25.167969 C 22.878906 24.746094 22.460938 24.453125 21.996094 24.46875 C 21.296875 24.46875 20.871094 24.996094 20.871094 25.875 C 20.871094 26.746094 21.296875 27.3125 21.996094 27.3125 C 22.46875 27.355469 22.890625 27.066406 23 26.632812 L 23.820312 26.632812 C 23.691406 27.472656 22.882812 28.070312 21.996094 27.988281 C 21.425781 27.988281 20.886719 27.757812 20.5 27.355469 C 20.121094 26.953125 19.9375 26.410156 20 25.875 C 19.921875 25.332031 20.105469 24.789062 20.492188 24.386719 C 20.878906 23.984375 21.425781 23.761719 21.996094 23.785156 Z M 14.46875 24.453125 C 13.996094 24.453125 13.679688 24.625 13.582031 24.910156 L 12.765625 24.910156 C 12.859375 24.230469 13.542969 23.785156 14.507812 23.785156 C 15.480469 23.785156 16.179688 24.289062 16.179688 25.148438 L 16.179688 27.90625 L 15.371094 27.90625 L 15.371094 27.339844 L 15.296875 27.339844 C 15.023438 27.757812 14.539062 27.996094 14.023438 27.972656 C 13.65625 28.011719 13.300781 27.898438 13.035156 27.667969 C 12.765625 27.4375 12.609375 27.109375 12.609375 26.769531 C 12.609375 26.046875 13.175781 25.625 14.1875 25.570312 L 15.3125 25.546875 L 15.3125 25.183594 C 15.3125 24.703125 15 24.453125 14.441406 24.453125 Z M 7.117188 23.875 L 7.878906 26.984375 L 7.9375 26.984375 L 8.816406 23.875 L 9.621094 23.875 L 10.496094 26.984375 L 10.558594 26.984375 L 11.316406 23.875 L 12.160156 23.875 L 10.996094 27.90625 L 10.117188 27.90625 L 9.25 24.890625 L 9.152344 24.890625 L 8.269531 27.90625 L 7.414062 27.90625 L 6.242188 23.875 Z M 12.472656 41.390625 C 9.167969 41.390625 7.109375 39.1875 7.109375 35.679688 C 7.109375 32.167969 9.167969 29.964844 12.472656 29.964844 C 15.769531 29.964844 17.820312 32.175781 17.820312 35.679688 C 17.820312 39.183594 15.730469 41.390625 12.441406 41.390625 Z M 17.550781 26.839844 L 17.550781 24.519531 L 16.867188 24.519531 L 16.867188 23.882812 L 17.550781 23.882812 L 17.550781 22.855469 L 18.386719 22.855469 L 18.386719 23.882812 L 19.308594 23.882812 L 19.308594 24.519531 L 18.386719 24.519531 L 18.386719 26.648438 C 18.386719 27.082031 18.570312 27.273438 18.988281 27.273438 C 19.09375 27.28125 19.199219 27.28125 19.308594 27.273438 L 19.308594 27.90625 C 19.15625 27.9375 19.003906 27.949219 18.851562 27.957031 C 17.886719 27.9375 17.523438 27.625 17.523438 26.839844 Z M 23.21875 41.390625 C 20.683594 41.390625 18.988281 40.140625 18.851562 38.234375 L 20.300781 38.234375 C 20.46875 39.417969 21.632812 40.140625 23.300781 40.140625 C 24.96875 40.140625 26.023438 39.351562 26.023438 38.234375 C 26.023438 37.285156 25.378906 36.699219 23.757812 36.332031 L 22.480469 36.0625 C 20.148438 35.582031 19.140625 34.585938 19.140625 33.015625 C 19.140625 31.1875 20.828125 29.898438 23.242188 29.898438 C 25.652344 29.898438 27.238281 31.222656 27.296875 33.097656 L 25.816406 33.097656 C 25.636719 31.878906 24.449219 31.03125 23.164062 31.195312 C 21.722656 31.195312 20.597656 31.871094 20.597656 32.992188 C 20.597656 33.871094 21.222656 34.464844 22.808594 34.800781 L 24.101562 35.070312 C 26.523438 35.574219 27.480469 36.488281 27.480469 38.058594 C 27.480469 40.105469 25.789062 41.390625 23.191406 41.390625 Z M 28.484375 27.90625 L 27.601562 27.90625 L 27.601562 25.480469 C 27.601562 24.828125 27.292969 24.527344 26.699219 24.527344 C 26.410156 24.507812 26.121094 24.605469 25.917969 24.804688 C 25.703125 24.996094 25.597656 25.273438 25.617188 25.546875 L 25.617188 27.917969 L 24.777344 27.917969 L 24.777344 22.285156 L 25.617188 22.285156 L 25.617188 24.507812 L 25.679688 24.507812 C 25.917969 24.039062 26.433594 23.753906 26.980469 23.792969 C 27.394531 23.769531 27.800781 23.925781 28.078125 24.21875 C 28.371094 24.507812 28.496094 24.898438 28.453125 25.289062 Z M 28.484375 27.90625 "/>
<path style=" stroke:none;fill-rule:nonzero;fill:rgb(11.372549%,11.372549%,12.156863%);fill-opacity:1;" d="M 12.441406 31.257812 C 10.058594 31.257812 8.566406 32.984375 8.566406 35.714844 C 8.566406 38.445312 10.058594 40.15625 12.441406 40.15625 C 14.816406 40.15625 16.300781 38.429688 16.300781 35.714844 C 16.300781 33 14.8125 31.257812 12.441406 31.257812 Z M 12.441406 31.257812 "/>
<path style=" stroke:none;fill-rule:nonzero;fill:rgb(11.372549%,11.372549%,12.156863%);fill-opacity:1;" d="M 13.421875 26.738281 C 13.421875 27.109375 13.75 27.324219 14.210938 27.324219 C 14.492188 27.355469 14.773438 27.265625 14.988281 27.089844 C 15.191406 26.902344 15.3125 26.648438 15.3125 26.375 L 15.3125 26.023438 L 14.308594 26.089844 C 13.679688 26.167969 13.421875 26.367188 13.421875 26.738281 Z M 13.421875 26.738281 "/>
</g>
</svg>
