<?xml version="1.0" encoding="UTF-8"?>
<svg xmlns="http://www.w3.org/2000/svg" xmlns:xlink="http://www.w3.org/1999/xlink" width="25px" height="54px" viewBox="0 0 25 54" version="1.1">
<g id="surface1">
<path style=" stroke:none;fill-rule:nonzero;fill:rgb(11.372549%,11.372549%,12.156863%);fill-opacity:1;" d="M 1.035156 9.238281 L 2.082031 9.238281 C 3.226562 9.234375 4.15625 9.785156 4.167969 10.46875 L 4.167969 30.238281 C 4.167969 33 7.898438 35.238281 12.5 35.238281 C 17.101562 35.238281 20.832031 33 20.832031 30.238281 L 20.832031 10.46875 C 20.832031 9.789062 20.832031 9.238281 22.917969 9.238281 L 23.964844 9.238281 C 24.539062 9.238281 25 8.960938 25 8.621094 C 25 8.277344 24.539062 8 23.964844 8 L 1.035156 8 C 0.460938 8 0 8.277344 0 8.621094 C 0 8.960938 0.460938 9.238281 1.035156 9.238281 Z M 12.5 15.238281 C 13.640625 15.246094 14.554688 15.804688 14.550781 16.488281 C 14.542969 17.171875 13.617188 17.722656 12.476562 17.71875 C 11.339844 17.71875 10.417969 17.164062 10.417969 16.480469 C 10.425781 15.796875 11.359375 15.246094 12.5 15.25 Z M 12.5 20.339844 C 13.640625 20.34375 14.554688 20.902344 14.550781 21.585938 C 14.542969 22.269531 13.617188 22.820312 12.476562 22.820312 C 11.339844 22.816406 10.417969 22.261719 10.417969 21.578125 C 10.433594 20.898438 11.363281 20.351562 12.5 20.351562 Z M 12.5 25.28125 C 13.640625 25.285156 14.554688 25.84375 14.550781 26.527344 C 14.542969 27.210938 13.617188 27.761719 12.476562 27.761719 C 11.339844 27.757812 10.417969 27.203125 10.417969 26.519531 C 10.433594 25.835938 11.363281 25.289062 12.5 25.289062 Z M 23.964844 48.75 L 22.917969 48.75 C 20.832031 48.75 20.832031 48.199219 20.832031 47.519531 L 20.832031 33.898438 C 18.871094 35.476562 15.78125 36.40625 12.5 36.40625 C 9.21875 36.40625 6.128906 35.476562 4.167969 33.898438 L 4.167969 47.53125 C 4.15625 48.214844 3.226562 48.765625 2.082031 48.761719 L 1.035156 48.761719 C 0.460938 48.761719 0 49.039062 0 49.378906 C 0 49.722656 0.460938 50 1.035156 50 L 23.964844 50 C 24.539062 50 25 49.722656 25 49.378906 C 25 49.039062 24.539062 48.761719 23.964844 48.761719 Z M 23.964844 48.75 "/>
</g>
</svg>
