<?xml version="1.0" encoding="UTF-8"?>
<svg xmlns="http://www.w3.org/2000/svg" xmlns:xlink="http://www.w3.org/1999/xlink" width="50px" height="77px" viewBox="0 0 50 77" version="1.1">
<g id="surface1">
<path style=" stroke:none;fill-rule:nonzero;fill:rgb(11.372549%,11.372549%,12.156863%);fill-opacity:1;" d="M 25 23.285156 C 11.589844 23.285156 0.714844 33.808594 0.714844 46.800781 C 0.714844 59.789062 11.589844 70.3125 25 70.3125 C 38.410156 70.3125 49.285156 59.789062 49.285156 46.800781 C 49.285156 33.808594 38.410156 23.285156 25 23.285156 Z M 31.421875 34.554688 C 32.703125 34.449219 33.855469 35.332031 34.027344 36.566406 L 32.855469 36.566406 C 32.683594 35.949219 32.085938 35.527344 31.421875 35.550781 C 30.425781 35.550781 29.816406 36.316406 29.816406 37.59375 C 29.816406 38.855469 30.425781 39.679688 31.421875 39.679688 C 32.097656 39.742188 32.703125 39.320312 32.855469 38.695312 L 34.027344 38.695312 C 33.84375 39.914062 32.691406 40.78125 31.421875 40.660156 C 30.609375 40.660156 29.839844 40.328125 29.285156 39.742188 C 28.742188 39.160156 28.484375 38.371094 28.570312 37.59375 C 28.460938 36.804688 28.722656 36.015625 29.273438 35.429688 C 29.828125 34.847656 30.609375 34.523438 31.421875 34.554688 Z M 20.671875 35.527344 C 19.996094 35.527344 19.542969 35.777344 19.402344 36.1875 L 18.238281 36.1875 C 18.371094 35.203125 19.347656 34.554688 20.726562 34.554688 C 22.113281 34.554688 23.113281 35.289062 23.113281 36.535156 L 23.113281 40.542969 L 21.960938 40.542969 L 21.960938 39.722656 L 21.851562 39.722656 C 21.460938 40.328125 20.769531 40.671875 20.03125 40.640625 C 19.507812 40.695312 19 40.53125 18.621094 40.195312 C 18.238281 39.863281 18.011719 39.386719 18.011719 38.890625 C 18.011719 37.839844 18.824219 37.226562 20.269531 37.148438 L 21.875 37.117188 L 21.875 36.585938 C 21.875 35.886719 21.429688 35.527344 20.628906 35.527344 Z M 10.167969 34.683594 L 11.253906 39.203125 L 11.339844 39.203125 L 12.597656 34.683594 L 13.746094 34.683594 L 14.996094 39.203125 L 15.082031 39.203125 L 16.167969 34.683594 L 17.371094 34.683594 L 15.710938 40.542969 L 14.453125 40.542969 L 13.214844 36.164062 L 13.074219 36.164062 L 11.816406 40.542969 L 10.589844 40.542969 L 8.917969 34.683594 Z M 17.816406 60.132812 C 13.097656 60.132812 10.15625 56.933594 10.15625 51.835938 C 10.15625 46.734375 13.097656 43.535156 17.816406 43.535156 C 22.527344 43.535156 25.457031 46.746094 25.457031 51.835938 C 25.457031 56.925781 22.472656 60.132812 17.773438 60.132812 Z M 25.074219 38.996094 L 25.074219 35.625 L 24.097656 35.625 L 24.097656 34.695312 L 25.074219 34.695312 L 25.074219 33.207031 L 26.269531 33.207031 L 26.269531 34.695312 L 27.582031 34.695312 L 27.582031 35.625 L 26.269531 35.625 L 26.269531 38.714844 C 26.269531 39.34375 26.53125 39.625 27.125 39.625 C 27.277344 39.632812 27.429688 39.632812 27.582031 39.625 L 27.582031 40.542969 C 27.367188 40.585938 27.148438 40.605469 26.929688 40.617188 C 25.554688 40.585938 25.03125 40.132812 25.03125 38.996094 Z M 33.171875 60.132812 C 29.546875 60.132812 27.125 58.316406 26.929688 55.550781 L 29.003906 55.550781 C 29.242188 57.269531 30.902344 58.316406 33.289062 58.316406 C 35.667969 58.316406 37.175781 57.171875 37.175781 55.550781 C 37.175781 54.167969 36.253906 53.316406 33.941406 52.785156 L 32.117188 52.394531 C 28.785156 51.695312 27.34375 50.246094 27.34375 47.964844 C 27.34375 45.308594 29.753906 43.4375 33.203125 43.4375 C 36.644531 43.4375 38.910156 45.363281 38.996094 48.085938 L 36.882812 48.085938 C 36.621094 46.3125 34.929688 45.082031 33.09375 45.320312 C 31.03125 45.320312 29.425781 46.300781 29.425781 47.933594 C 29.425781 49.207031 30.316406 50.074219 32.585938 50.558594 L 34.429688 50.949219 C 37.890625 51.683594 39.257812 53.011719 39.257812 55.292969 C 39.257812 58.265625 36.839844 60.132812 33.128906 60.132812 Z M 40.691406 40.542969 L 39.429688 40.542969 L 39.429688 37.019531 C 39.429688 36.070312 38.988281 35.636719 38.140625 35.636719 C 37.726562 35.605469 37.316406 35.746094 37.023438 36.035156 C 36.71875 36.316406 36.566406 36.71875 36.597656 37.117188 L 36.597656 40.5625 L 35.394531 40.5625 L 35.394531 32.375 L 36.597656 32.375 L 36.597656 35.605469 L 36.6875 35.605469 C 37.023438 34.921875 37.761719 34.511719 38.542969 34.566406 C 39.136719 34.535156 39.714844 34.761719 40.113281 35.183594 C 40.527344 35.605469 40.710938 36.175781 40.648438 36.738281 Z M 40.691406 40.542969 "/>
<path style=" stroke:none;fill-rule:nonzero;fill:rgb(11.372549%,11.372549%,12.156863%);fill-opacity:1;" d="M 17.773438 45.414062 C 14.367188 45.414062 12.238281 47.921875 12.238281 51.886719 C 12.238281 55.855469 14.367188 58.339844 17.773438 58.339844 C 21.167969 58.339844 23.285156 55.832031 23.285156 51.886719 C 23.285156 47.945312 21.160156 45.414062 17.773438 45.414062 Z M 17.773438 45.414062 "/>
<path style=" stroke:none;fill-rule:nonzero;fill:rgb(11.372549%,11.372549%,12.156863%);fill-opacity:1;" d="M 19.171875 38.847656 C 19.171875 39.386719 19.640625 39.699219 20.300781 39.699219 C 20.703125 39.742188 21.105469 39.613281 21.410156 39.355469 C 21.703125 39.082031 21.875 38.714844 21.875 38.316406 L 21.875 37.808594 L 20.441406 37.90625 C 19.542969 38.015625 19.171875 38.304688 19.171875 38.847656 Z M 19.171875 38.847656 "/>
</g>
</svg>
